<svg width="20" height="18" viewBox="0 0 20 18" fill="none" xmlns="http://www.w3.org/2000/svg">
<path d="M9.99978 0C4.39222 0 0 3.13089 0 7.12834V10.3717C0 14.3691 4.39222 17.5 9.99978 17.5C15.6073 17.5 20 14.3694 20 10.3719V7.12834C20 3.13089 15.6071 0 9.99978 0ZM9.99978 2.56081C14.676 2.56081 17.9347 4.96788 17.9347 7.12834C17.9347 7.46339 17.8604 7.79844 17.7109 8.13349C16.9313 9.90656 14.0327 11.7008 9.99978 11.7008C9.74778 11.7008 9.50022 11.6937 9.25711 11.6802C5.61289 11.4765 3.01956 9.79496 2.28467 8.1222C2.13889 7.79955 2.06533 7.4645 2.06533 7.12807C2.06533 4.96761 5.324 2.56081 9.99978 2.56081ZM9.99978 14.9395C6.52711 14.9395 3.83667 13.6117 2.68156 12.0436C2.70044 12.0579 2.72067 12.0712 2.73978 12.0852C2.82 12.1447 2.90178 12.2034 2.98489 12.261C3.01844 12.2841 3.052 12.307 3.086 12.3299C3.17156 12.3872 3.25867 12.4434 3.34689 12.4988C3.374 12.5156 3.40044 12.5329 3.42778 12.5498C3.54333 12.6203 3.66111 12.6892 3.78133 12.7561C3.80222 12.7677 3.82378 12.7787 3.84467 12.79C3.94444 12.8446 4.04578 12.8978 4.14867 12.9496C4.18689 12.9688 4.22533 12.9876 4.264 13.0066C4.356 13.0515 4.44933 13.0956 4.54356 13.1383C4.58067 13.1551 4.61733 13.1722 4.65467 13.1887C4.78444 13.246 4.91556 13.3017 5.04911 13.3549C5.04956 13.3551 5.04978 13.3551 5.05022 13.3554C5.18267 13.4078 5.31733 13.4576 5.45311 13.5059C5.494 13.5205 5.53556 13.5342 5.57689 13.5486C5.67667 13.5827 5.77711 13.6158 5.87867 13.6478C5.92311 13.6618 5.96733 13.6756 6.012 13.6891C6.12867 13.7244 6.24622 13.758 6.36511 13.7899C6.39089 13.7968 6.416 13.8045 6.442 13.8114C6.586 13.8494 6.73156 13.8847 6.87844 13.9181C6.91756 13.9269 6.95733 13.9349 6.99667 13.9434C7.10711 13.9674 7.218 13.9902 7.33 14.0117C7.37911 14.0211 7.42844 14.0302 7.47778 14.039C7.59045 14.0591 7.70378 14.0779 7.818 14.0955C7.85844 14.1018 7.89867 14.1085 7.93956 14.1145C8.09244 14.1366 8.24622 14.1567 8.40133 14.1738C8.43133 14.1771 8.46178 14.1795 8.492 14.1826C8.61867 14.1958 8.74622 14.2076 8.87444 14.2176C8.92533 14.2214 8.97622 14.2247 9.02711 14.2283C9.14111 14.236 9.25556 14.2421 9.37044 14.247C9.41911 14.2492 9.46778 14.2515 9.51667 14.2531C9.67711 14.2583 9.838 14.2619 10 14.2619C10.162 14.2619 10.3231 14.2583 10.4836 14.2531C10.5322 14.2515 10.5804 14.249 10.6291 14.247C10.7444 14.2421 10.8593 14.2357 10.9738 14.2283C11.0244 14.225 11.0751 14.2217 11.1256 14.2176C11.2542 14.2076 11.3822 14.1958 11.5096 14.1826C11.5391 14.1795 11.5689 14.1771 11.5984 14.1738C11.7542 14.1564 11.9084 14.1366 12.0618 14.1142C12.1007 14.1085 12.1393 14.1021 12.1782 14.0961C12.2947 14.0781 12.4107 14.0591 12.5258 14.0385C12.5729 14.0299 12.6196 14.0214 12.6664 14.0123C12.7829 13.99 12.8987 13.9663 13.0133 13.9412C13.048 13.9335 13.0829 13.9266 13.1176 13.9186C13.2676 13.8847 13.4162 13.8483 13.5631 13.8095C13.5793 13.8051 13.5953 13.8004 13.6118 13.796C13.742 13.761 13.8707 13.7241 13.9982 13.6855C14.0344 13.6745 14.0702 13.6632 14.106 13.6522C14.2204 13.6163 14.3336 13.5792 14.4458 13.5406C14.4751 13.5304 14.5049 13.5205 14.534 13.5103C14.8191 13.4094 15.0962 13.2995 15.3651 13.1802C15.3829 13.1722 15.4004 13.1642 15.4182 13.1562C15.538 13.1025 15.6562 13.0465 15.7724 12.9892C15.7896 12.9807 15.8069 12.9724 15.8238 12.9639C16.2249 12.7633 16.604 12.5418 16.9582 12.3012C16.9627 12.2982 16.9671 12.2952 16.9716 12.2921C17.0896 12.2117 17.2051 12.1296 17.3173 12.045C16.1616 13.6125 13.4713 14.9395 9.99978 14.9395Z" fill="#474B4F"/>
</svg>
