<svg width="28" height="28" viewBox="0 0 28 28" fill="none" xmlns="http://www.w3.org/2000/svg">
<path d="M25.4546 20.3637H24.1818V10.1818C24.1818 4.56783 19.614 0 14 0C8.386 0 3.81817 4.56783 3.81817 10.1818V20.3637H2.54543C1.8416 20.3637 1.27269 20.9326 1.27269 21.6364C1.27269 22.3402 1.8416 22.9091 2.54543 22.9091H3.81817H8.90909C8.90909 25.7167 11.1923 28 14 28C16.8077 28 19.0909 25.7167 19.0909 22.9091H24.1818H25.4546C26.1584 22.9091 26.7273 22.3402 26.7273 21.6363C26.7273 20.9325 26.1583 20.3637 25.4546 20.3637ZM14 25.4546C12.5962 25.4546 11.4546 24.3129 11.4546 22.9091H16.5455C16.5454 24.3129 15.4038 25.4546 14 25.4546ZM21.6363 20.3637H19.0909H8.90909H6.36366V10.1818C6.36366 5.9704 9.78857 2.54548 14 2.54548C18.2114 2.54548 21.6363 5.9704 21.6363 10.1818V20.3637Z" fill="#2F2F2F"/>
</svg>
