<svg width="19" height="23" viewBox="0 0 19 23" fill="none" xmlns="http://www.w3.org/2000/svg">
<path fill-rule="evenodd" clip-rule="evenodd" d="M2.21433 1.91714C4.94917 2.13362 6.55856 3.20645 6.88222 5.64755C4.14738 5.43107 2.53798 4.35823 2.21433 1.91714ZM8.01978 7.56469C8.61446 7.56469 9.09655 7.14495 9.09655 6.62719C9.09655 1.90817 5.93863 0 1.07677 0C0.482086 0 0 0.419733 0 0.9375C0 5.65652 3.15792 7.56469 8.01978 7.56469Z" fill="#474B4F"/>
<path fill-rule="evenodd" clip-rule="evenodd" d="M10.7302 10.3125C15.5921 10.3125 18.75 8.40435 18.75 3.68533C18.75 3.16757 18.2679 2.74783 17.6732 2.74783C12.8114 2.74783 9.65343 4.656 9.65343 9.37502C9.65343 9.89279 10.1355 10.3125 10.7302 10.3125ZM16.5357 4.66497C16.212 7.10607 14.6026 8.1789 11.8678 8.39538C12.1914 5.95429 13.8008 4.88145 16.5357 4.66497Z" fill="#474B4F"/>
<path fill-rule="evenodd" clip-rule="evenodd" d="M7.1824 7.2164C9.2647 9.45938 10.2117 12.8626 8.62072 17.5465C8.45207 18.043 8.77765 18.5646 9.34792 18.7114C9.91819 18.8582 10.5172 18.5748 10.6858 18.0783C12.4878 12.773 11.3655 8.7396 8.85724 6.03775C8.48341 5.63507 7.80544 5.57249 7.34295 5.89797C6.88045 6.22344 6.80857 6.81373 7.1824 7.2164Z" fill="#474B4F"/>
<path fill-rule="evenodd" clip-rule="evenodd" d="M10.7302 21.5625C10.7302 16.9802 7.79328 11.25 3.97775 11.25C3.52789 11.25 3.12544 11.4935 2.96857 11.8606C0.480801 17.6821 3.80386 22.5 9.6534 22.5C10.2481 22.5 10.7302 22.0803 10.7302 21.5625ZM4.69199 13.2893C6.43705 14.0692 8.17931 17.4877 8.51771 20.5379C5.19882 20.0095 3.41243 17.1286 4.69199 13.2893Z" fill="#474B4F"/>
<path fill-rule="evenodd" clip-rule="evenodd" d="M14.6148 13.2893C15.8944 17.1286 14.108 20.0095 10.7891 20.5379C11.1275 17.4877 12.8698 14.0692 14.6148 13.2893ZM8.57666 21.5625C8.57666 22.0803 9.05875 22.5 9.65343 22.5C15.503 22.5 18.826 17.6821 16.3383 11.8606C16.1814 11.4935 15.7789 11.25 15.3291 11.25C11.5136 11.25 8.57666 16.9802 8.57666 21.5625Z" fill="#474B4F"/>
</svg>
