
<svg width="31" height="31" viewBox="0 0 31 31" fill="none" xmlns="http://www.w3.org/2000/svg">
<g clip-path="url(#clip0_1019_318)">
<path d="M28.1647 7.74334H27.779V3.99752C27.779 2.4342 26.5072 1.16226 24.9438 1.16226H4.37955C2.11027 1.16226 0.239242 2.898 0.0232564 5.11147C-0.00972874 5.26788 0.00201689 3.87422 0.00201689 25.4602C0.00201689 27.8739 1.96573 29.8377 4.37948 29.8377H28.1647C29.7281 29.8377 30.9999 28.5658 30.9999 27.0024V10.5786C31 9.01528 29.7281 7.74334 28.1647 7.74334ZM4.37955 3.10978H24.9438C25.4333 3.10978 25.8316 3.50804 25.8316 3.99758V7.7434H4.37955C3.07761 7.7434 2.0118 6.71411 1.9524 5.42659C2.01174 4.13902 3.07755 3.10978 4.37955 3.10978ZM28.1647 27.8902H4.37955C3.03963 27.8902 1.94954 26.8001 1.94954 25.4602V8.95284C2.64521 9.41883 3.48116 9.6908 4.37955 9.6908H28.1647C28.6543 9.6908 29.0525 10.0891 29.0525 10.5786V14.5262H21.7247C19.2291 14.5262 17.1988 16.5565 17.1988 19.0521C17.1988 21.5477 19.2291 23.578 21.7247 23.578H29.0525V27.0024C29.0525 27.4919 28.6543 27.8902 28.1647 27.8902ZM29.0525 21.6306H21.7247C20.303 21.6306 19.1462 20.474 19.1462 19.0522C19.1462 17.6304 20.3029 16.4738 21.7247 16.4738H29.0525V21.6306Z" fill="#B3B4C3"/>
<path d="M22.0841 20.4634C22.8635 20.4634 23.4953 19.8316 23.4953 19.0522C23.4953 18.2728 22.8635 17.641 22.0841 17.641C21.3047 17.641 20.6729 18.2728 20.6729 19.0522C20.6729 19.8316 21.3047 20.4634 22.0841 20.4634Z" fill="#B3B4C3"/>
</g>
<defs>
<clipPath id="clip0_1019_318">
<rect width="31" height="31" fill="white"/>
</clipPath>
</defs>
</svg>
