<svg width="18" height="14" viewBox="0 0 18 14" fill="none" xmlns="http://www.w3.org/2000/svg">
<path d="M16.3828 0.8125H1.61719C0.725484 0.8125 0 1.53798 0 2.42969V11.5703C0 12.462 0.725484 13.1875 1.61719 13.1875H16.3828C17.2745 13.1875 18 12.462 18 11.5703V2.42969C18 1.53798 17.2745 0.8125 16.3828 0.8125ZM5.625 5.73438C5.625 6.43226 5.05726 7 4.35938 7H3.51562C2.81774 7 2.25 6.43226 2.25 5.73438V4.89062C2.25 4.19274 2.81774 3.625 3.51562 3.625H4.35938C5.05726 3.625 5.625 4.19274 5.625 4.89062V5.73438ZM12.8566 8.60699C12.7347 8.60699 12.6119 8.56755 12.5087 8.48623C12.2648 8.29389 12.2229 7.94022 12.4152 7.69623C12.5729 7.49626 12.6562 7.25548 12.6562 7C12.6562 6.74452 12.5729 6.50373 12.4153 6.30373C12.2229 6.05978 12.2648 5.70607 12.5088 5.51373C12.7527 5.32147 13.1064 5.36327 13.2988 5.60725C13.6099 6.00198 13.7812 6.4966 13.7812 7C13.7812 7.5034 13.6099 7.99802 13.2987 8.39271C13.1877 8.53352 13.023 8.60699 12.8566 8.60699ZM14.672 9.81658C14.561 9.94036 14.4074 10.0034 14.2532 10.0034C14.1194 10.0034 13.9851 9.95594 13.8777 9.85954C13.6465 9.65208 13.6272 9.29641 13.8347 9.06522C14.3443 8.4973 14.625 7.76388 14.625 7C14.625 6.23612 14.3443 5.5027 13.8347 4.93478C13.6272 4.70356 13.6465 4.34792 13.8777 4.14046C14.1089 3.933 14.4645 3.9522 14.672 4.18342C15.3671 4.95806 15.75 5.95836 15.75 7C15.75 8.04164 15.3671 9.04195 14.672 9.81658Z" fill="#0F122A"/>
</svg>
