<svg width="20" height="20" viewBox="0 0 20 20" fill="none" xmlns="http://www.w3.org/2000/svg">
<path d="M16.2017 18.852L16.2026 18.8529L9.97127 12.6215L3.75162 18.8412C3.23975 19.3531 2.39729 19.3666 1.88541 18.8547L1.08807 18.0574C0.576333 17.5456 0.588061 16.7014 1.09994 16.1895L7.31958 9.96986L1.08835 3.73863C0.576749 3.22703 0.574128 2.39657 1.08614 1.88456L1.88804 1.08267C2.39964 0.571067 3.22816 0.575344 3.7399 1.08708L9.97127 7.31845L16.2134 1.07632C16.725 0.564718 17.5468 0.575205 18.0586 1.08708L18.856 1.88442C19.3679 2.3963 19.3765 3.21654 18.8651 3.728L12.623 9.97014L18.8532 16.2004C19.3651 16.7123 19.3701 17.5418 18.8586 18.0532L18.0567 18.8551C17.5447 19.3671 16.7135 19.3638 16.2017 18.852Z" fill="#2F2F2F"/>
</svg>
