<svg xmlns="http://www.w3.org/2000/svg" style="min-width: 34px; max-width: 34px; min-height: 34px; max-height: 34px;"  width="34" height="34" viewBox="0 0 34 34" fill="none">
    <g clip-path="url(#clip0_429_3301)">
        <path d="M23.2017 25.852L23.2026 25.8529L16.9713 19.6215L10.7516 25.8412C10.2397 26.3531 9.39729 26.3666 8.88541 25.8547L8.08807 25.0574C7.57633 24.5456 7.58806 23.7014 8.09994 23.1895L14.3196 16.9699L8.08835 10.7386C7.57675 10.227 7.57413 9.39657 8.08614 8.88456L8.88804 8.08267C9.39964 7.57107 10.2282 7.57534 10.7399 8.08708L16.9713 14.3185L23.2134 8.07632C23.725 7.56472 24.5468 7.57521 25.0586 8.08708L25.856 8.88442C26.3679 9.3963 26.3765 10.2165 25.8651 10.728L19.623 16.9701L25.8532 23.2004C26.3651 23.7123 26.3701 24.5418 25.8586 25.0532L25.0567 25.8551C24.5447 26.3671 23.7135 26.3638 23.2017 25.852Z" fill="#2F2F2F"/>
    </g>
    <defs>
        <clipPath id="clip0_429_3301">
            <rect width="24" height="24" fill="white" transform="matrix(0.707107 0.707107 0.707107 -0.707107 0 16.9707)"/>
        </clipPath>
    </defs>
</svg>