<svg xmlns="http://www.w3.org/2000/svg" width="16" height="16" viewBox="0 0 16 16" fill="none">
<g clip-path="url(#clip0_429_3266)">
<path d="M3.9909 3.85169C3.33841 4.43925 2.86771 5.14368 2.55932 5.90005C1.74128 7.9062 2.12433 10.2922 3.72146 11.938L5.19524 10.4642C5.27639 10.3831 5.42247 10.4415 5.44195 10.5616L6.24701 15.8302C6.25999 15.9178 6.18533 15.9925 6.09768 15.9795L0.825845 15.1745C0.705735 15.155 0.647304 15.0089 0.728459 14.9277L2.20548 13.4507C-0.232418 10.9576 -0.647933 7.21801 0.952447 4.29642C1.43289 3.4167 2.09836 2.61164 2.94562 1.93643C4.38693 0.790518 6.15936 0.241908 7.91881 0.277617L8.24992 2.44284C6.73394 2.31299 5.17576 2.78044 3.9909 3.85169Z" fill="#0F122A"/>
<path d="M13.7945 2.54965C16.2324 5.04273 16.6479 8.78236 15.0475 11.7039C14.5671 12.5837 13.9016 13.3887 13.0544 14.0639C11.613 15.2099 9.84062 15.7585 8.08117 15.7228L7.75006 13.5575C9.26279 13.6874 10.8242 13.2199 12.0091 12.1487C12.6616 11.5611 13.1323 10.8567 13.4407 10.1003C14.2587 8.09417 13.8757 5.70821 12.2785 4.06238L10.8047 5.53616C10.7236 5.61731 10.5775 5.55888 10.558 5.43877L9.75297 0.170177C9.73999 0.08253 9.81465 0.00786686 9.9023 0.0208521L15.1741 0.825911C15.2942 0.845387 15.3494 0.991467 15.2715 1.07262L13.7945 2.54965Z" fill="#0F122A"/>
</g>
<defs>
<clipPath id="clip0_429_3266">
<rect width="16" height="16" fill="white" transform="matrix(1 0 0 -1 0 16)"/>
</clipPath>
</defs>
</svg>