<svg width="31" height="31" viewBox="0 0 31 31" fill="none" xmlns="http://www.w3.org/2000/svg">
<g clip-path="url(#clip0_768_334)">
<g clip-path="url(#clip1_768_334)">
<path d="M28.7855 12.123L15.8689 0.282707C15.448 -0.102311 14.8008 -0.0929257 14.3917 0.303899L2.1926 12.1441C1.98377 12.3469 1.86571 12.6257 1.86571 12.9166V29.9236C1.86571 30.5181 2.34754 31 2.94211 31H11.912C12.5065 31 12.9884 30.5181 12.9884 29.9236V22.0301H18.0116V29.9236C18.0116 30.5181 18.4934 31 19.088 31H28.0579C28.6524 31 29.1343 30.5184 29.1343 29.9236V12.9167C29.1343 12.6149 29.008 12.3272 28.7855 12.123ZM26.9815 28.8472H20.1644V20.9537C20.1644 20.3592 19.6825 19.8773 19.088 19.8773H11.9121C11.3176 19.8773 10.8357 20.3592 10.8357 20.9537V28.8472H4.01851V13.372L15.1624 2.55606L26.9815 13.3903V28.8472H26.9815Z" fill="#3FDEAE"/>
</g>
</g>
<defs>
<clipPath id="clip0_768_334">
<rect width="31" height="31" fill="white"/>
</clipPath>
<clipPath id="clip1_768_334">
<rect width="31" height="31" fill="white"/>
</clipPath>
</defs>
</svg>
