<svg xmlns="http://www.w3.org/2000/svg" width="16" height="16" viewBox="0 0 16 16" fill="none">
<g clip-path="url(#clip0_429_3282)">
<path d="M1.46655 8.63393C2.79273 9.96098 4.74472 10.4448 6.53719 9.89052L7.13237 10.4858C7.16834 10.5208 7.21746 10.5388 7.26745 10.5354L8.73356 10.4004C8.78367 10.3961 8.83317 10.4142 8.86864 10.4498C8.90424 10.4853 8.92236 10.5348 8.91814 10.5849L8.79409 11.927C8.79037 11.9771 8.80861 12.0262 8.84408 12.0617C8.87956 12.0972 8.92868 12.1154 8.9788 12.1117L10.3209 11.9876C10.371 11.9834 10.4205 12.0015 10.4561 12.0371C10.4917 12.0727 10.5097 12.1221 10.5054 12.1724L10.3814 13.5144C10.3777 13.5644 10.3959 13.6136 10.4314 13.6491C10.4669 13.6845 10.5161 13.7028 10.5661 13.699L11.9136 13.5778C11.9631 13.5735 12.0119 13.5913 12.047 13.6264C12.0819 13.6614 12.0998 13.7102 12.0956 13.7597L11.9632 15.2339C11.959 15.2833 11.9772 15.3319 12.0128 15.3663L12.5861 15.9229C12.6382 15.9724 12.7071 16 12.779 16L15.4135 15.9946C15.5612 15.9966 15.7036 15.9389 15.8083 15.8347C15.913 15.7305 15.9714 15.5885 15.9702 15.4406L15.9729 12.7373C15.9586 12.6617 15.9198 12.593 15.8626 12.5416L9.87441 6.55331C10.6073 4.18539 9.51592 1.63525 7.29698 0.530614C5.07804 -0.574141 2.38549 0.0921109 0.937742 2.10426C-0.510002 4.1163 -0.286098 6.88104 1.46655 8.63393ZM14.2423 12.4975C14.3443 12.608 14.3443 12.7783 14.2423 12.8888C14.1936 12.9403 14.1257 12.9695 14.0549 12.9695C13.9839 12.9695 13.9162 12.9403 13.8675 12.8888C13.7655 12.7783 13.7655 12.608 13.8675 12.4975C13.9162 12.446 13.9839 12.4168 14.0549 12.4168C14.1257 12.4168 14.1936 12.446 14.2423 12.4975ZM9.29015 7.4875L13.5809 11.7783C13.6503 11.8476 13.6774 11.9488 13.652 12.0436C13.6266 12.1385 13.5525 12.2125 13.4577 12.238C13.363 12.2633 13.2617 12.2362 13.1923 12.1668L8.90164 7.87614C8.84954 7.82441 8.82076 7.75383 8.82163 7.68039C8.82076 7.60782 8.84966 7.53811 8.90164 7.4875C8.95312 7.4359 9.02296 7.40687 9.0959 7.40687C9.16884 7.40687 9.23867 7.4359 9.29015 7.4875ZM4.56684 2.67599C4.9525 3.06165 5.06786 3.64157 4.85909 4.14545C4.65045 4.64932 4.15873 4.97792 3.6133 4.97792C3.06787 4.97792 2.57615 4.64932 2.3675 4.14545C2.15873 3.64157 2.27409 3.06165 2.65975 2.67599C3.18645 2.14967 4.04014 2.14967 4.56684 2.67599Z" fill="#0F122A"/>
</g>
<defs>
<clipPath id="clip0_429_3282">
<rect width="16" height="16" fill="white" transform="matrix(0 1 -1 0 16 0)"/>
</clipPath>
</defs>
</svg>