<svg xmlns="http://www.w3.org/2000/svg" style="min-width: 24px; max-width: 24px; min-height: 24px; max-height: 24px;" width="24" height="24" viewBox="0 0 24 24" fill="none">
    <g clip-path="url(#clip0_429_3296)">
        <path d="M11.7726 9.29586L20.2954 9.29586C21.236 9.29586 22 10.0599 22 11.0004C22 11.941 21.236 12.705 20.2954 12.705L11.7726 12.705C10.8321 12.705 10.0681 11.941 10.0681 11.0004C10.0681 10.0599 10.8321 9.29586 11.7726 9.29586ZM19.5006 17.7571C19.9379 17.2049 19.8419 16.3993 19.2888 15.962C18.7348 15.5248 17.931 15.6199 17.4928 16.1739C15.8933 18.2016 13.498 19.3639 10.9199 19.3639C6.3086 19.3639 2.55639 15.6117 2.55639 11.0013C2.55639 6.39005 6.3086 2.63783 10.9199 2.63783C13.4971 2.63783 15.8915 3.79925 17.4901 5.82518C17.9273 6.37918 18.7312 6.47423 19.2861 6.037C19.8401 5.59977 19.9342 4.79683 19.4979 4.24101C17.4113 1.59681 14.2847 0.0805356 10.9199 0.0805354C4.89824 0.0805351 -2.14149e-07 4.97968 -4.77323e-07 11.0004C-7.40498e-07 17.0212 4.89915 21.9203 10.9199 21.9203C14.2865 21.9203 17.4132 20.4022 19.5006 17.7571Z" fill="#191B35"/>
    </g>
    <defs>
        <clipPath id="clip0_429_3296">
            <rect width="22" height="22" fill="white" transform="translate(22) rotate(90)"/>
        </clipPath>
    </defs>
</svg>