<svg width="28" height="30" viewBox="0 0 28 30" fill="none" xmlns="http://www.w3.org/2000/svg">
<path d="M25.4546 22.3637H24.1818V12.1818C24.1818 6.56783 19.614 2 14 2C8.386 2 3.81817 6.56783 3.81817 12.1818V22.3637H2.54543C1.8416 22.3637 1.27269 22.9326 1.27269 23.6364C1.27269 24.3402 1.8416 24.9091 2.54543 24.9091H3.81817H8.90909C8.90909 27.7167 11.1923 30 14 30C16.8077 30 19.0909 27.7167 19.0909 24.9091H24.1818H25.4546C26.1584 24.9091 26.7273 24.3402 26.7273 23.6363C26.7273 22.9325 26.1583 22.3637 25.4546 22.3637ZM14 27.4546C12.5962 27.4546 11.4546 26.3129 11.4546 24.9091H16.5455C16.5454 26.3129 15.4038 27.4546 14 27.4546ZM21.6363 22.3637H19.0909H8.90909H6.36366V12.1818C6.36366 7.9704 9.78857 4.54548 14 4.54548C18.2114 4.54548 21.6363 7.9704 21.6363 12.1818V22.3637Z" fill="#2F2F2F"/>
<circle cx="22" cy="6" r="6" fill="#3FDEAE"/>
</svg>
