<svg width="29" height="29" viewBox="0 0 29 29" fill="none" xmlns="http://www.w3.org/2000/svg">
<g clip-path="url(#clip0_768_319)">
<path d="M26.318 0.168389C26.0023 -0.0313195 25.6065 -0.0548812 25.2697 0.10569L22.0012 1.66076L18.6968 0.104274C18.4025 -0.0349444 18.0611 -0.0338116 17.7663 0.106086L14.4978 1.6611L11.1938 0.104614C10.8987 -0.0342081 10.5576 -0.0334718 10.2633 0.106426L6.99657 1.66037L3.73022 0.106766C3.3935 -0.0534653 2.99799 -0.0302434 2.68229 0.169465C2.36692 0.368493 2.17554 0.715746 2.17554 1.08871V27.9125C2.17554 28.5131 2.66235 29 3.263 29H25.737C26.338 29 26.8244 28.5131 26.8244 27.9125V1.08877C26.8244 0.715406 26.6334 0.368493 26.318 0.168389ZM24.6495 26.8251H4.35047V2.81019L6.5297 3.84691C6.82513 3.98754 7.16842 3.98754 7.46384 3.84691L10.7327 2.29183L14.0364 3.84872C14.3315 3.98794 14.6725 3.9868 14.9672 3.84691L18.2357 2.29183L21.5405 3.84872C21.8344 3.98794 22.1763 3.9868 22.471 3.84691L24.6496 2.81019V26.8251H24.6495Z" fill="#B3B4C3" stroke="white" stroke-width="0.3"/>
<path d="M10.7668 7.68594C8.88803 7.68594 7.35946 9.21451 7.35946 11.0933C7.35946 12.972 8.88769 14.5006 10.7668 14.5006C12.6456 14.5006 14.1741 12.972 14.1741 11.0933C14.1741 9.21451 12.6455 7.68594 10.7668 7.68594ZM10.7668 12.3257C10.0871 12.3257 9.53433 11.7729 9.53433 11.0933C9.53433 10.4136 10.0871 9.86081 10.7668 9.86081C11.4461 9.86081 11.9993 10.4136 11.9993 11.0933C11.9992 11.7729 11.4464 12.3257 10.7668 12.3257Z" fill="#B3B4C3"/>
<path d="M18.2336 15.1531C16.3552 15.1531 14.8266 16.6814 14.8266 18.5605C14.8266 20.4388 16.3548 21.9675 18.2336 21.9675C20.1127 21.9675 21.6413 20.4389 21.6409 18.5605C21.6409 16.6817 20.1127 15.1531 18.2336 15.1531ZM18.2335 19.7922C17.5543 19.7922 17.0015 19.2394 17.0015 18.5601C17.0015 17.8805 17.5543 17.3277 18.2335 17.3277C18.9132 17.3277 19.4663 17.8808 19.466 18.5601C19.466 19.2394 18.9132 19.7922 18.2335 19.7922Z" fill="#B3B4C3"/>
<path d="M20.7412 8.58308C20.3153 8.15897 19.6269 8.16044 19.2032 8.58563L8.58245 19.2426C8.15833 19.6682 8.15941 20.3565 8.58499 20.7806C8.79739 20.992 9.07509 21.0978 9.35273 21.0978C9.63185 21.0978 9.91057 20.9912 10.123 20.7785L20.7438 10.1211C21.1679 9.69552 21.1664 9.00685 20.7412 8.58308Z" fill="#B3B4C3"/>
</g>
<defs>
<clipPath id="clip0_768_319">
<rect width="29" height="29" fill="white"/>
</clipPath>
</defs>
</svg>
