<svg xmlns="http://www.w3.org/2000/svg" width="20" height="20" viewBox="0 0 20 20" fill="none">
<g clip-path="url(#clip0_429_3288)">
<path d="M18.2736 7.8301L16.8023 7.64305C16.681 7.26975 16.5316 6.90975 16.357 6.56775L17.2656 5.39775C17.6335 4.92427 17.5904 4.25592 17.1702 3.84897L15.9376 2.61636C15.5267 2.19218 14.8583 2.14992 14.3841 2.51697L13.2156 3.42558C12.8736 3.25105 12.5136 3.10158 12.1396 2.98027L11.9525 1.51131C11.8821 0.922011 11.382 0.478271 10.7896 0.478271H9.03651C8.44408 0.478271 7.94399 0.922011 7.87355 1.50897L7.68651 2.98027C7.31242 3.10158 6.95242 3.25027 6.61042 3.42558L5.44121 2.51697C4.96851 2.14992 4.30016 2.19218 3.89242 2.61245L2.65982 3.84427C2.23564 4.25592 2.1926 4.92427 2.56042 5.39853L3.46903 6.56775C3.29373 6.90975 3.14503 7.26975 3.02373 7.64305L1.55477 7.8301C0.965468 7.90053 0.521729 8.40062 0.521729 8.99305V10.7461C0.521729 11.3385 0.965468 11.8386 1.55242 11.9091L3.02373 12.0961C3.14503 12.4694 3.29451 12.8294 3.46903 13.1714L2.56042 14.3414C2.1926 14.8149 2.23564 15.4832 2.6559 15.8902L3.88851 17.1228C4.30016 17.5462 4.96773 17.5884 5.44199 17.2214L6.61121 16.3128C6.95321 16.4881 7.31321 16.6376 7.68651 16.7581L7.87355 18.2263C7.94399 18.8171 8.44408 19.2609 9.03651 19.2609H10.7896C11.382 19.2609 11.8821 18.8171 11.9525 18.2302L12.1396 16.7589C12.5129 16.6376 12.8729 16.4881 13.2149 16.3136L14.3849 17.2222C14.8583 17.59 15.5267 17.547 15.9336 17.1267L17.1663 15.8941C17.5904 15.4824 17.6335 14.8149 17.2656 14.3406L16.357 13.1714C16.5323 12.8294 16.6818 12.4694 16.8023 12.0961L18.2705 11.9091C18.8598 11.8386 19.3036 11.3385 19.3036 10.7461V8.99305C19.3043 8.40062 18.8606 7.90053 18.2736 7.8301ZM9.91303 13.7826C7.75538 13.7826 5.99999 12.0272 5.99999 9.86958C5.99999 7.71192 7.75538 5.95653 9.91303 5.95653C12.0707 5.95653 13.8261 7.71192 13.8261 9.86958C13.8261 12.0272 12.0707 13.7826 9.91303 13.7826Z" fill="#0F122A"/>
</g>
<defs>
<clipPath id="clip0_429_3288">
<rect width="18.7826" height="18.7826" fill="white" transform="translate(0.521729 0.478271)"/>
</clipPath>
</defs>
</svg>