<svg width="49" height="49" viewBox="0 0 49 49" fill="none" xmlns="http://www.w3.org/2000/svg">
<g clip-path="url(#clip0_455_3234)">
<path d="M24.5034 0C17.5034 0 11.7812 5.7222 11.7812 12.7222C11.7812 19.7223 17.5034 25.4445 24.5034 25.4445C31.5035 25.4445 37.2257 19.7223 37.2257 12.7222C37.2257 5.7222 31.5035 0 24.5034 0Z" fill="#939CB7"/>
<path d="M46.3368 35.6112C46.0034 34.7778 45.559 34 45.059 33.2778C42.5034 29.5 38.5591 27 34.1146 26.3889C33.5591 26.3334 32.948 26.4444 32.5035 26.7777C30.1702 28.5 27.3924 29.3888 24.5035 29.3888C21.6145 29.3888 18.8368 28.5 16.5035 26.7777C16.059 26.4444 15.4478 26.2778 14.8923 26.3889C10.4479 27 6.44793 29.5 3.94795 33.2778C3.44795 34 3.00346 34.8334 2.6702 35.6112C2.50357 35.9445 2.55908 36.3334 2.72571 36.6668C3.1702 37.4445 3.7257 38.2224 4.2257 38.889C5.00345 39.9446 5.83681 40.889 6.78129 41.7778C7.55904 42.5556 8.44791 43.2778 9.33688 44.0001C13.7257 47.2779 19.0035 49 24.448 49C29.8924 49 35.1702 47.2778 39.5591 44.0001C40.4479 43.3334 41.3368 42.5556 42.1147 41.7778C43.0035 40.889 43.8924 39.9445 44.6703 38.889C45.2258 38.1667 45.7259 37.4445 46.1702 36.6668C46.4479 36.3334 46.5034 35.9444 46.3368 35.6112Z" fill="#939CB7"/>
</g>
<defs>
<clipPath id="clip0_455_3234">
<rect width="49" height="49" fill="white"/>
</clipPath>
</defs>
</svg>
