<svg width="31" height="29" viewBox="0 0 31 29" fill="none" xmlns="http://www.w3.org/2000/svg">
<path d="M28.1647 6.74334H27.779V2.99752C27.779 1.4342 26.5072 0.162262 24.9438 0.162262H4.37955C2.11027 0.162262 0.239242 1.898 0.0232564 4.11147C-0.00972874 4.26788 0.00201689 2.87422 0.00201689 24.4602C0.00201689 26.8739 1.96573 28.8377 4.37948 28.8377H28.1647C29.7281 28.8377 30.9999 27.5658 30.9999 26.0024V9.5786C31 8.01528 29.7281 6.74334 28.1647 6.74334ZM4.37955 2.10978H24.9438C25.4333 2.10978 25.8316 2.50804 25.8316 2.99758V6.7434H4.37955C3.07761 6.7434 2.0118 5.71411 1.9524 4.42659C2.01174 3.13902 3.07755 2.10978 4.37955 2.10978ZM28.1647 26.8902H4.37955C3.03963 26.8902 1.94954 25.8001 1.94954 24.4602V7.95284C2.64521 8.41883 3.48116 8.6908 4.37955 8.6908H28.1647C28.6543 8.6908 29.0525 9.08906 29.0525 9.5786V13.5262H21.7247C19.2291 13.5262 17.1988 15.5565 17.1988 18.0521C17.1988 20.5477 19.2291 22.578 21.7247 22.578H29.0525V26.0024C29.0525 26.4919 28.6543 26.8902 28.1647 26.8902ZM29.0525 20.6306H21.7247C20.303 20.6306 19.1462 19.474 19.1462 18.0522C19.1462 16.6304 20.3029 15.4738 21.7247 15.4738H29.0525V20.6306Z" fill="#B3B4C3"/>
</svg>
