<svg width="31" height="31" viewBox="0 0 31 31" fill="none" xmlns="http://www.w3.org/2000/svg">
<path d="M28.5781 20.1016V7.26562C28.5781 5.93028 27.4916 4.84375 26.1562 4.84375H24.582V6.05469C24.582 6.72354 24.0399 7.26562 23.3711 7.26562C22.7022 7.26562 22.1602 6.72354 22.1602 6.05469V4.84375H16.6504V6.05469C16.6504 6.72354 16.1083 7.26562 15.4395 7.26562C14.7706 7.26562 14.2285 6.72354 14.2285 6.05469V4.84375H8.7793V6.05469C8.7793 6.72354 8.23721 7.26562 7.56836 7.26562C6.89951 7.26562 6.35742 6.72354 6.35742 6.05469V4.84375H4.84375C3.50841 4.84375 2.42188 5.93028 2.42188 7.26562V26.1562C2.42188 27.4916 3.50841 28.5781 4.84375 28.5781H26.1562C27.4916 28.5781 28.5781 27.4916 28.5781 26.1562C28.5781 25.4874 29.1202 24.9453 29.7891 24.9453C30.4579 24.9453 31 25.4874 31 26.1562C31 28.8272 28.8272 31 26.1562 31H4.84375C2.17283 31 0 28.8272 0 26.1562V7.26562C0 4.5947 2.17283 2.42188 4.84375 2.42188H6.35742V1.21094C6.35742 0.542084 6.89951 0 7.56836 0C8.23721 0 8.7793 0.542084 8.7793 1.21094V2.42188H14.2285V1.21094C14.2285 0.542084 14.7706 0 15.4395 0C16.1083 0 16.6504 0.542084 16.6504 1.21094V2.42188H22.1602V1.21094C22.1602 0.542084 22.7022 0 23.3711 0C24.0399 0 24.582 0.542084 24.582 1.21094V2.42188H26.1562C28.8272 2.42188 31 4.5947 31 7.26562V20.1016C31 20.7704 30.4579 21.3125 29.7891 21.3125C29.1202 21.3125 28.5781 20.7704 28.5781 20.1016ZM16.6504 12.1699C16.6504 11.5011 16.1083 10.959 15.4395 10.959C14.7706 10.959 14.2285 11.5011 14.2285 12.1699V19.9805C14.2285 20.6493 14.7706 21.1914 15.4395 21.1914C16.1083 21.1914 16.6504 20.6493 16.6504 19.9805V12.1699ZM15.4395 23.0078C14.7706 23.0078 14.2285 23.5499 14.2285 24.2188C14.2285 24.8876 14.7706 25.4297 15.4395 25.4297C16.1083 25.4297 16.6504 24.8876 16.6504 24.2188C16.6504 23.5499 16.1083 23.0078 15.4395 23.0078Z" fill="#B3B4C3"/>
</svg>
