<svg xmlns="http://www.w3.org/2000/svg" width="18" height="18" viewBox="0 0 18 18" fill="none">
<path d="M16.3828 2.8125H1.61719C0.725484 2.8125 0 3.53798 0 4.42969V13.5703C0 14.462 0.725484 15.1875 1.61719 15.1875H16.3828C17.2745 15.1875 18 14.462 18 13.5703V4.42969C18 3.53798 17.2745 2.8125 16.3828 2.8125ZM5.625 7.73438C5.625 8.43226 5.05726 9 4.35938 9H3.51562C2.81774 9 2.25 8.43226 2.25 7.73438V6.89062C2.25 6.19274 2.81774 5.625 3.51562 5.625H4.35938C5.05726 5.625 5.625 6.19274 5.625 6.89062V7.73438ZM12.8566 10.607C12.7347 10.607 12.6119 10.5675 12.5087 10.4862C12.2648 10.2939 12.2229 9.94022 12.4152 9.69623C12.5729 9.49626 12.6562 9.25548 12.6562 9C12.6562 8.74452 12.5729 8.50373 12.4153 8.30373C12.2229 8.05978 12.2648 7.70607 12.5088 7.51373C12.7527 7.32147 13.1064 7.36327 13.2988 7.60725C13.6099 8.00198 13.7812 8.4966 13.7812 9C13.7812 9.5034 13.6099 9.99802 13.2987 10.3927C13.1877 10.5335 13.023 10.607 12.8566 10.607ZM14.672 11.8166C14.561 11.9404 14.4074 12.0034 14.2532 12.0034C14.1194 12.0034 13.9851 11.9559 13.8777 11.8595C13.6465 11.6521 13.6272 11.2964 13.8347 11.0652C14.3443 10.4973 14.625 9.76388 14.625 9C14.625 8.23612 14.3443 7.5027 13.8347 6.93478C13.6272 6.70356 13.6465 6.34792 13.8777 6.14046C14.1089 5.933 14.4645 5.9522 14.672 6.18342C15.3671 6.95806 15.75 7.95836 15.75 9C15.75 10.0416 15.3671 11.0419 14.672 11.8166Z" fill="#0F122A"/>
</svg>